<?xml version="1.0" encoding="UTF-8" standalone="no"?>
<svg
   fill="currentColor"
   stroke="currentColor"
   stroke-width="0"
   viewBox="0 0 24 24"
   version="1.1"
   id="svg184"
   sodipodi:docname="favicon.svg"
   inkscape:version="1.2 (dc2aeda, 2022-05-15)"
   xmlns:inkscape="http://www.inkscape.org/namespaces/inkscape"
   xmlns:sodipodi="http://sodipodi.sourceforge.net/DTD/sodipodi-0.dtd"
   xmlns="http://www.w3.org/2000/svg"
   xmlns:svg="http://www.w3.org/2000/svg">
  <defs
     id="defs188" />
  <sodipodi:namedview
     id="namedview186"
     pagecolor="#ffffff"
     bordercolor="#000000"
     borderopacity="0.25"
     inkscape:showpageshadow="2"
     inkscape:pageopacity="0.0"
     inkscape:pagecheckerboard="0"
     inkscape:deskcolor="#d1d1d1"
     showgrid="false"
     inkscape:zoom="9.8333333"
     inkscape:cx="2.2372881"
     inkscape:cy="12"
     inkscape:window-width="1309"
     inkscape:window-height="456"
     inkscape:window-x="0"
     inkscape:window-y="25"
     inkscape:window-maximized="0"
     inkscape:current-layer="svg184" />
  <path
     stroke="none"
     d="M9.46 0a2.41 2.41 0 0 0-.72.09 2.42 2.42 0 0 0-1.7 2.97l1.44 5.23L3.4 6.6a2.42 2.42 0 1 0-1.52 4.59l5.88 1.94-4.13 4.67A2.42 2.42 0 0 0 7.24 21l3.6-4.06 1.45 5.27a2.42 2.42 0 1 0 4.66-1.28l-1.43-5.23 5.08 1.68a2.42 2.42 0 1 0 1.52-4.59l-5.88-1.94 4.13-4.67A2.42 2.42 0 0 0 16.75 3l-3.6 4.06-1.44-5.27A2.42 2.42 0 0 0 9.46 0z"
     id="path182"
     style="fill:#3b82f6;fill-opacity:1" />
</svg>
