<svg xmlns="http://www.w3.org/2000/svg" xmlns:xlink="http://www.w3.org/1999/xlink" version="1.0" viewBox="0 0 750 500">
  <defs>
    <radialGradient xlink:href="#a" id="b" cx="79.311" cy="182.979" r="10.849" fx="79.311" fy="182.979" gradientTransform="matrix(1 0 0 .94827 0 9.465)" gradientUnits="userSpaceOnUse"/>
    <radialGradient xlink:href="#a" id="c" cx="86.412" cy="158.866" r="10.748" fx="86.412" fy="158.866" gradientTransform="matrix(1 0 0 1.01639 0 -2.604)" gradientUnits="userSpaceOnUse"/>
    <radialGradient xlink:href="#a" id="d" cx="63.265" cy="165.398" r="6.976" fx="63.265" fy="165.398" gradientTransform="matrix(1 0 0 1.35155 0 -58.145)" gradientUnits="userSpaceOnUse"/>
    <radialGradient xlink:href="#a" id="e" cx="62.874" cy="141.393" r="9.733" fx="62.874" fy="141.393" gradientTransform="matrix(1 0 0 .72588 0 38.76)" gradientUnits="userSpaceOnUse"/>
    <radialGradient xlink:href="#a" id="f" cx="59.143" cy="118.906" r="6.907" fx="59.143" fy="118.906" gradientTransform="matrix(1 0 0 1.15797 0 -18.784)" gradientUnits="userSpaceOnUse"/>
    <radialGradient xlink:href="#a" id="g" cx="77.34" cy="102.59" r="8.255" fx="77.34" fy="102.59" gradientTransform="matrix(1 0 0 .6949 0 31.301)" gradientUnits="userSpaceOnUse"/>
    <radialGradient xlink:href="#a" id="h" cx="95.646" cy="127.457" r="9.389" fx="95.646" fy="127.457" gradientTransform="matrix(1 0 0 .97725 0 2.9)" gradientUnits="userSpaceOnUse"/>
    <linearGradient id="a">
      <stop offset="0" stop-color="#014004"/>
      <stop offset="1" stop-color="#014004" stop-opacity="0"/>
    </linearGradient>
  </defs>
  <path fill="#0047ab" fill-rule="evenodd" d="M0 0h750v500H0z"/>
  <g transform="matrix(.99777 0 0 1.00136 -216.662 -80.281)">
    <path fill="#ffdf00" fill-opacity=".941" fill-rule="evenodd" stroke="#000" stroke-width="1pt" d="M61.46 74.333c-6.995 12.492-26.482 12.492-27.482 16.99-1 4.496 2.998 8.744 2.998 8.744s28.732-8.995 34.728-17.989c5.996-8.994-10.243-7.745-10.243-7.745z" font-family="Bitstream Vera Sans" font-size="12" font-stretch="ultra-condensed" font-weight="100" letter-spacing="0" style="marker:none" transform="matrix(-1.01238 0 0 1.01238 521.075 89.83)"/>
    <path fill="#ffdf00" fill-rule="evenodd" stroke="#000" stroke-width="1pt" d="M33.83 92.95c-.368 3.232 11.391-.878 13.89-.628 2.498.25 4.996 3.248 3.997 4.996-1 1.75-7.245 4.498-10.493 4.747-3.248.25-7.917-5.454-7.395-9.115z" font-family="Bitstream Vera Sans" font-size="12" font-stretch="ultra-condensed" font-weight="100" letter-spacing="0" style="marker:none" transform="matrix(-1.01238 0 0 1.01238 521.075 89.83)"/>
    <path fill="#ffdf00" fill-opacity=".941" fill-rule="evenodd" stroke="#000" stroke-width="1pt" d="M39.974 111.14c-2.998-9.244 14.12-15.776 7.6-17.498 3.509-.181 8.765 3.942 6.142 7.51-.948 1.289-12.992 3.992-13.742 9.988z" font-family="Bitstream Vera Sans" font-size="12" font-stretch="ultra-condensed" font-weight="100" letter-spacing="0" style="marker:none" transform="matrix(-1.01238 0 0 1.01238 521.075 89.83)"/>
    <path fill="#ffdf00" fill-rule="evenodd" stroke="#000" stroke-width="1pt" d="M61.46 74.333c-6.995 12.492-26.482 12.492-27.482 16.99-1 4.496 2.998 8.744 2.998 8.744s28.732-8.995 34.728-17.989c5.996-8.994-10.243-7.745-10.243-7.745z" font-family="Bitstream Vera Sans" font-size="12" font-stretch="ultra-condensed" font-weight="100" letter-spacing="0" style="marker:none" transform="translate(229.471 89.285) scale(1.01238)"/>
    <path fill="#ffdf00" fill-opacity=".941" fill-rule="evenodd" stroke="#000" stroke-width="1pt" d="M33.83 92.95c-.368 3.232 11.391-.878 13.89-.628 2.498.25 4.996 3.248 3.997 4.996-1 1.75-7.245 4.498-10.493 4.747-3.248.25-7.917-5.454-7.395-9.115z" font-family="Bitstream Vera Sans" font-size="12" font-stretch="ultra-condensed" font-weight="100" letter-spacing="0" style="marker:none" transform="translate(229.471 89.285) scale(1.01238)"/>
    <path fill="#ffdf00" fill-rule="evenodd" stroke="#000" stroke-width="1pt" d="M39.974 109.81c-2.998-9.244 14.12-15.777 7.6-17.5 3.509-.18 8.765 3.939 6.142 7.507-.948 1.288-12.992 3.997-13.742 9.993z" font-family="Bitstream Vera Sans" font-size="12" font-stretch="ultra-condensed" font-weight="100" letter-spacing="0" style="marker:none" transform="translate(229.471 89.285) scale(1.01238)"/>
    <path fill="#ffdf00" fill-rule="evenodd" stroke="#000" stroke-width="1.01238pt" d="M482.615 145.698c4.89-10.446-12.76-22.432 3.961-13.662-1.586-9.728-13.551-5.355-13.551-1.584 0 3.77 5 7.458 4.918 10.491-.081 3.033-5.082 5.164-5.082 5.164l9.754-.41z"/>
    <path fill="#ffdf00" fill-rule="evenodd" stroke="#000" stroke-width="1.01238pt" d="M456.438 127.96c9.832-1.035 15.062 17.157 26.158 17.993.304 1.02-2.588 3.85-8.15 3.88-8.278.044-24.836-16.428-24.836-16.428l6.829-5.446z"/>
    <path fill="#ffdf00" fill-rule="evenodd" stroke="#000" stroke-width="1.01238pt" d="M468.045 158.668c-.286-7.144-14.048-16.538-15.252-24.16-.857-5.43 4.287-6.573 4.287-6.573s-6.573-2-20.862 17.719c-14.29 19.72 31.645 13.04 31.827 13.014zM267.094 145.997c-4.89-10.446 12.76-22.432-3.961-13.662 1.586-9.728 13.551-5.355 13.551-1.584 0 3.77-5 7.458-4.918 10.491.081 3.033 5.082 5.164 5.082 5.164l-9.754-.41z"/>
    <path fill="#ffdf00" fill-rule="evenodd" stroke="#000" stroke-width="1.01238pt" d="M293.271 128.259c-9.832-1.035-15.062 17.157-26.158 17.993-.304 1.02 2.588 3.85 8.15 3.88 8.278.044 24.836-16.428 24.836-16.428l-6.829-5.446z"/>
    <path fill="#ffdf00" fill-rule="evenodd" stroke="#000" stroke-width="1.01238pt" d="M281.664 158.967c.286-7.144 14.048-16.538 15.252-24.16.857-5.43-4.287-6.573-4.287-6.573s6.573-2 20.862 17.719c14.29 19.72-31.645 13.04-31.827 13.014z"/>
    <path fill="#ffdf00" fill-rule="evenodd" stroke="#000" stroke-width="1.01238pt" d="M282.305 158.825c19.699.247 42.69-38.075 92.695-38.075 50.18 0 77.619 36.672 91.828 37.306 6.899.307-18.334 24.354-22.115 24.57-8.354.48-39.696-33.617-69.218-33.617-25.514 0-53.716 32.361-69.934 31.983-3.083-.071-28.336-22.23-23.256-22.168z"/>
    <path d="m442.77 155.266-10.916 13.636-2.655-2.126 3.386-7.46-4.962 6.198-2.533-2.028 10.915-13.635 2.533 2.027-3.217 7.5 4.915-6.14 2.533 2.028m-19.017-13.607 2.328 1.458c1.552.971 2.558 1.698 3.017 2.181.465.486.688 1.126.668 1.92-.01.791-.409 1.819-1.2 3.08-.72 1.152-1.328 1.85-1.82 2.094-.493.243-1.123.179-1.893-.193.534.598.813 1.124.838 1.582.026.456-.02.836-.135 1.137-.106.297-.534 1.044-1.282 2.239l-2.444 3.905-3.055-1.913 3.08-4.92c.496-.792.749-1.317.757-1.574.014-.254-.206-.523-.658-.807l-4.18 6.676-3.29-2.06 9.269-14.805m1.704 4.593-2.062 3.29c.37.234.665.336.883.312.227-.028.545-.368.954-1.02l.51-.814c.293-.47.412-.823.358-1.06-.05-.235-.263-.47-.643-.71m-11.65 1.694c-.704 1.575-1.236 2.676-1.597 3.305a4.451 4.451 0 0 1-1.397 1.524 3.637 3.637 0 0 1-1.906.646c-.698.037-1.424-.114-2.18-.452-.717-.32-1.301-.744-1.754-1.272a3.65 3.65 0 0 1-.818-1.852 4.47 4.47 0 0 1 .18-2.07c.223-.675.695-1.819 1.418-3.432l1.198-2.682c.705-1.574 1.232-2.673 1.585-3.298a4.623 4.623 0 0 1 1.4-1.535 3.7 3.7 0 0 1 1.915-.641c.699-.037 1.425.114 2.18.452.718.321 1.297.747 1.742 1.279.452.526.73 1.143.83 1.846a4.465 4.465 0 0 1-.18 2.069c-.223.675-.694 1.819-1.417 3.432l-1.199 2.681m-1.178-6.707c.326-.729.498-1.21.516-1.441.026-.237-.069-.403-.283-.5a.51.51 0 0 0-.535.063c-.166.12-.43.583-.79 1.39l-3.274 7.318c-.407.91-.627 1.485-.662 1.725-.03.243.072.415.304.52.237.105.443.05.62-.166.176-.215.47-.784.882-1.707l3.222-7.202m-17.093-11.136 3.721 1.066c1.177.336 2.035.699 2.576 1.085.546.388.913.964 1.097 1.728.185.757.071 1.86-.344 3.313-.281.982-.61 1.628-.987 1.939-.372.314-.973.462-1.806.448.797.476 1.272 1.023 1.427 1.643.157.614.08 1.467-.234 2.56l-.445 1.555c-.325 1.134-.678 1.942-1.059 2.424-.375.483-.833.757-1.375.818-.541.061-1.563-.121-3.063-.551l-4.316-1.236 4.808-16.792m2.908 3.941-1.069 3.734c.162.038.287.07.375.096.366.105.63.068.79-.111.161-.185.384-.776.67-1.772.15-.525.213-.903.19-1.134-.02-.239-.091-.405-.213-.499-.113-.092-.361-.197-.743-.314m-1.818 6.348-1.345 4.697c.532.131.894.13 1.085-.003.197-.131.393-.534.587-1.212l.448-1.566c.206-.718.266-1.174.179-1.362-.086-.19-.404-.375-.954-.554m-25.19-13.633h6.51v3.517h-2.606v3.331h2.44v3.343h-2.44v3.122h2.865v3.51h-6.769v-16.823m-9.851 1.23 2.604 13.358 3.805-.767.668 3.31-7.532 1.522-3.256-16.7 3.71-.724m-10.107 2.527 1.202 3.282-2.165.792 4.803 13.12-3.645 1.334-4.802-13.12-2.156.79-1.2-3.283 7.963-2.916m-12.82 5.127 1.565 3.125-2.06 1.033 6.258 12.49-3.47 1.738-6.258-12.491-2.052 1.029-1.566-3.126 7.582-3.798m-13.504 7.817 11.358 13.455-3.336 2.16-1.868-2.532-1.169.758 1.514 2.76-3.375 2.184-7.836-15.734 4.713-3.05M329.53 154a239.536 239.536 0 0 1-4.477-5.829c1.484 3.016 2.605 5.199 3.362 6.55l1.114-.72m-22.244.561 3.175-2.213c1.003-.7 1.826-1.137 2.468-1.313.646-.179 1.324-.1 2.031.24.705.334 1.489 1.12 2.353 2.359.584.837.878 1.5.88 1.988.011.486-.254 1.047-.79 1.685.87-.32 1.596-.342 2.175-.071.575.265 1.187.865 1.837 1.797l.926 1.326c.674.969 1.078 1.752 1.211 2.352.14.596.061 1.124-.232 1.583-.294.459-1.082 1.135-2.362 2.028l-3.682 2.567-9.99-14.327m4.891.232 2.223 3.186a9.39 9.39 0 0 1 .31-.23c.313-.218.45-.446.412-.682-.04-.243-.358-.79-.951-1.64-.312-.448-.565-.735-.76-.863-.198-.133-.371-.184-.52-.15-.144.03-.382.156-.714.38m3.777 5.415 2.796 4.01c.435-.332.663-.613.681-.845.023-.235-.167-.642-.57-1.22l-.931-1.336c-.429-.614-.743-.947-.945-1-.201-.052-.544.079-1.03.39" font-family="Impact" font-size="12" font-stretch="condensed" font-weight="400"/>
    <path fill="#c9c0bb" fill-rule="evenodd" d="m374.848 158.636 9.091 25.152H410l-21.818 16.06L396.97 225l-20.91-16.06-22.424 15.757 8.182-24.848L340 183.788l27.273-.606 7.575-24.546z"/>
    <g id="i" fill-rule="evenodd">
      <path fill="#017b21" stroke="#014004" stroke-width="1.25" d="M178.467 223.039c-4.685 3.407-13.204-13.204-35.779-16.612-22.574-3.407-20.445 17.89-31.519 11.074-11.074-6.815 15.334-10.648 15.334-10.648s-6.815.426-11.075 0c-4.259-.426-11.5 4.26-16.611 4.685-5.111.426-7.667-2.981-8.519-6.389a70.931 70.931 0 0 1-1.278-6.389s6.39 5.537 9.797 5.963c3.407.426 10.222 0 10.222 0s-5.537-2.555-9.796-5.11c-4.26-2.556-8.945-6.39-8.945-6.39s-8.093 4.26-15.76 2.982c-7.666-1.278-12.777-13.63-12.777-13.63s7.666 8.944 13.204 9.796c5.537.852 8.944-1.703 8.944-1.703s-5.537-6.39-8.518-10.649c-2.982-4.26-3.408-2.555-2.982-4.26.426-1.703.426-3.407.426-3.407l-5.963-2.13-3.834-4.259s-5.11-5.537-5.537-8.092c-.426-2.556 5.111-7.241 7.241-6.39 2.13.852-1.278 4.26-.852 7.241.426 2.982 7.241 6.815 7.241 6.815s-3.407-5.963-3.407-8.518c0-2.556-.426-3.834-.426-3.834s.852 1.278-2.13-1.703c-2.981-2.982-8.519-2.556-8.519-5.964 0-3.407-.426-5.11-.426-5.11s2.13 2.98 4.686 4.685c2.555 1.703 4.685 1.703 4.685 1.703s-2.556-2.981-5.537-7.24c-2.982-4.26-13.63-9.371-13.204-11.5.426-2.13 1.704-4.26 1.704-4.26s1.277 4.26 5.537 4.26 4.26-8.52 4.26-8.52 2.555 7.241 5.11 7.241c2.556 0 5.537-3.833 5.537-3.833s-.851 8.093-2.555 10.222c-1.704 2.13-4.26 4.26-2.556 6.815 1.704 2.556 5.111 8.945 5.111 8.945s1.278.852 2.982-2.556c1.704-3.407 4.26-8.944 1.704-12.352-2.556-3.407-5.537-5.963-5.537-5.963s3.833 2.13 4.685 1.278c.852-.852-.852-7.241-2.556-13.63-1.703-6.389-5.537-11.926-5.537-11.926s3.834 3.407 10.223 3.833c6.389.426 13.63-.852 13.63-.852s-4.686 2.13-7.241 2.982c-2.556.852-4.686 2.13-4.686 2.13s5.112-.852 4.686.851c-.426 1.704-6.815 3.408-6.39 6.39.427 2.981 6.816-2.556 11.075-4.686 4.26-2.13 9.796-2.13 9.796-2.13s-5.537 7.241-8.092 8.52l-9.37 4.684s2.129 1.704 4.684.426c2.556-1.277 4.686-3.407 4.686-3.407s-1.704 6.815-4.686 9.37c-2.981 2.556-5.963 1.704-5.963 1.704s-.426 1.278-.426 4.686c0 3.407-.852 5.963-.852 5.963s5.964-5.538 7.241-8.093c1.278-2.556 6.815-4.26 6.815-4.26L88.594 137l6.815-6.815 1.704 5.111S97.54 137 100.095 137s3.833.426 3.833.426-5.963 1.703-11.5 2.13c-5.537.425-8.519-1.278-9.37.851-.853 2.13 0 3.408-2.556 6.39-2.556 2.98-5.111 11.074-5.111 14.481 0 3.408 1.277 4.26 1.277 4.26s0 .425 2.13-3.834c2.13-4.26 6.815-8.945 6.815-8.945s-3.408 9.37-4.685 11.927c-1.278 2.555-3.408 5.537-1.704 8.944 1.704 3.408 10.648 13.204 14.908 17.038 4.259 3.833 8.518 7.24 8.518 7.24s-2.555-4.259-.852-6.815c1.704-2.555 6.815 2.556 8.52 5.538 1.703 2.981 3.407 6.389 5.536 7.24 2.13.852 1.704.426 1.704.426l-.426-5.963s2.556 3.408 5.537 4.26c2.982.852 6.815 1.278 6.815 1.278s-5.111-3.834-8.518-7.667c-3.408-3.834-6.39-6.39-7.667-5.537-1.278.851-2.556 3.407-4.686.425-2.13-2.981-3.833-6.389-6.815-6.814-2.981-.426-5.11 4.259-5.11 4.259s-.853-4.685-.853-7.667 4.26-2.982 3.408-5.111c-.852-2.13-2.982-1.704-4.685-6.815-1.704-5.111-5.964-9.37-5.964-9.37s7.241 6.814 9.371 6.388c2.13-.426 6.39-6.815 6.39-6.815s-.853 5.112-.853 10.649c0 5.537 0 11.074 2.556 11.5 2.555.426 1.704-4.26 4.685-1.704 2.982 2.556 5.537 10.223 8.093 11.5 2.555 1.278 3.833-1.277 2.555-4.685-1.277-3.407-4.685-2.981-5.11-6.815-.427-3.833.425-5.111.425-5.111s1.704 6.389 3.408 6.389c1.703 0 3.407-11.926 3.407-11.926s5.963 8.519 5.537 12.778c-.426 4.26-4.259 3.833-4.259 7.24 0 3.408-.426 8.945 1.704 8.52 2.13-.426 5.11-7.667 5.11-7.667s.853 4.259 2.557 7.24l3.407 5.964s1.278-1.278 0-6.815c-1.278-5.537-2.982-8.519-3.407-11.5-.426-2.982 1.703-6.39 3.833-5.538 2.13.852 2.13 4.26 1.704 10.223-.426 5.963-.852 12.778.852 12.778 1.703 0 13.63 2.555 22.148 7.667 8.519 5.11 17.464 9.37 15.76 13.204z" transform="matrix(1.02021 .22593 .08278 1.0133 204.483 76.648)"/>
      <path fill="#ffdf00" stroke="url(#b)" d="M73.515 182.345c-2.663-2.283-6.087-1.522-3.804-4.946 2.282-3.424 5.326-3.043 7.609-1.522 2.283 1.522-1.522-3.043 1.902-2.663 3.424.38 8.75 5.707 6.848 7.61-1.902 1.902 2.664 1.902 3.425 4.565.76 2.663-1.142 8.37-4.946 7.229-3.805-1.142-8.37-.38-8.751-3.044-.38-2.663-1.902-10.653-2.283-7.229z" transform="matrix(1.02021 .22593 .08278 1.0133 204.483 76.648)"/>
      <path fill="#ffdf00" stroke="url(#c)" d="M79.037 160.97c2.873 7.542 5.746 8.62 9.696 8.26 3.95-.359 10.056-9.337 7.183-12.928-2.873-3.592-7.542 3.232-7.542 3.232s0-1.796-.718-3.591c-.718-1.796-2.514-1.796-2.514-1.796s2.155 1.436 5.028 0c2.873-1.437 3.232-3.232 1.436-4.669-1.795-1.436-8.26-1.436-11.85.36-3.592 1.795-3.592 6.464-3.592 8.618 0 2.155 0 1.437 2.873 2.514z" transform="matrix(1.02021 .22593 .08278 1.0133 204.483 76.648)"/>
      <path fill="#ffdf00" stroke="url(#d)" d="M60.909 171.075c-5.537 2.13-4.686-7.241-2.13-10.223 2.556-2.981 3.408-5.537 5.537-3.833 2.13 1.703-1.278 4.259 1.278 3.407 2.556-.852.852-4.685 2.982-3.833 2.13.852.851 5.111 0 8.518-.852 3.408-1.704 7.667-3.834 8.52-2.13.851-4.685 1.703-3.833-2.556z" transform="matrix(1.02021 .22593 .08278 1.0133 204.483 76.648)"/>
      <path fill="#ffdf00" stroke="url(#e)" d="M63.038 147.222c-6.815 0-5.963-.426-6.389-2.555-.426-2.13 2.982-1.278.426-3.834-2.555-2.555-2.981.852-3.407-2.13-.426-2.981 4.26-3.407 7.667-3.833 3.407-.426 1.277 2.556 4.259 2.556s4.685-.852 4.685-.852l-1.278 3.833s3.834-1.278 2.982 1.704c-.852 2.982-1.704 7.667-8.945 5.111z" transform="matrix(1.02021 .22593 .08278 1.0133 204.483 76.648)"/>
      <path fill="#ffdf00" stroke="url(#f)" d="M58.353 119.962c-1.278 4.686 1.278 6.815-2.556 6.39-3.833-.427-2.981-4.26-2.981-8.093 0-3.834 2.13-7.241 5.963-6.815 3.833.426 6.815 4.259 4.685 7.24-2.13 2.982 4.26-.851 1.278 2.13-2.981 2.982-4.685 2.556-6.389-.852z" transform="matrix(1.02021 .22593 .08278 1.0133 204.483 76.648)"/>
      <path fill="#ffdf00" stroke="url(#g)" d="M70.705 97.814c1.278 3.833-4.26 8.518 1.704 9.796 5.963 1.278 14.482-3.407 12.352-5.963-2.13-2.555-4.685 0-8.093 0-3.407 0-2.555-5.963-5.963-3.833z" transform="matrix(1.02021 .22593 .08278 1.0133 204.483 76.648)"/>
      <path fill="#ffdf00" stroke="url(#h)" d="M103.928 134.444c-2.555 3.834-5.537 0-8.944-.426-3.408-.426-7.241 0-8.093-2.981-.852-2.982 2.555-.426 4.685-2.13 2.13-1.704 0-2.982 2.13-2.982s1.703.426 3.407 2.13-.852-4.685.426-6.815c1.278-2.13 5.111-4.26 5.537 0 .426 4.26-1.278 8.093-2.13 9.37-.851 1.279 5.538-2.129 2.982 3.834z" transform="matrix(1.02021 .22593 .08278 1.0133 204.483 76.648)"/>
    </g>
    <use xlink:href="#i" width="744.094" height="496.063" transform="matrix(-1 0 0 1 750 1)"/>
    <path fill="#ffdf00" d="m406.664 228.475 10.835 10.201-3.548 2.684-1.764-1.972-1.243.94 1.385 2.26-3.59 2.716-7.09-13.035 5.014-3.793m3.856 8.912a152.07 152.07 0 0 1-4.24-4.509c1.34 2.503 2.358 4.304 3.055 5.407l1.186-.898m-21.903 2.671 2.795-1.518c1.803-.98 3.061-1.568 3.775-1.763.72-.198 1.337-.217 1.852-.057.515.16.927.428 1.238.802.307.37.791 1.166 1.452 2.388l2.446 4.52c.627 1.157.985 1.968 1.073 2.428.09.452.047.872-.134 1.26-.183.381-.473.737-.868 1.069-.397.325-1.042.732-1.936 1.216l-4.71 2.56-6.983-12.905m4.93.179 4.593 8.488c.538-.291.817-.567.839-.826.017-.264-.206-.827-.673-1.687l-2.713-5.014c-.315-.584-.54-.948-.67-1.09a.597.597 0 0 0-.478-.205c-.19 0-.49.112-.898.334m-10.544.93 5.619 13.781-4.344.968-.785-2.527-1.522.34.322 2.63-4.394.978-1.034-14.802 6.138-1.367m-.196 9.71a154.484 154.484 0 0 1-1.983-5.864c.18 2.832.356 4.895.532 6.186l1.45-.323m-7.442-8.395-4.202 14.242-6.741-.9-.622-14.886 4.684.626c.007 4.079-.058 7.516-.196 10.315a230.564 230.564 0 0 1 1.724-7.36l.668-2.663 4.684.626m-23.34-5.1 9.509 3.104-.884 2.8-3.806-1.243-.839 2.654 3.564 1.163-.842 2.662-3.562-1.164-.972 3.078 4.186 1.367-.885 2.8-9.889-3.229 4.42-13.993m-1.146-.75-8.445 11.998-3.9-2.744 1.527-7.083-3.84 5.455-3.719-2.618 8.445-11.998 3.72 2.617-1.31 7.158 3.803-5.403 3.72 2.617" font-family="Impact" font-size="12" font-stretch="condensed" font-weight="400"/>
  </g>
</svg>
