<svg xmlns="http://www.w3.org/2000/svg" stroke="#000" stroke-linecap="square" stroke-miterlimit="10" color-interpolation="auto" font-family="Dialog" font-size="12" font-weight="400" version="1.0" viewBox="0 0 531.496 496.063">
  <path fill="#fec500" fill-rule="evenodd" stroke="none" d="M0-.001h531.497v496.065H0z"/>
  <path fill="#fff" fill-rule="evenodd" stroke="none" d="M0 17.716h513.781v460.632H0z"/>
  <path fill="#003271" fill-rule="evenodd" stroke="#fff" stroke-linecap="butt" stroke-miterlimit="4" stroke-width=".6001429500000001" d="M180.454 308.636s12.205 13.948 17.435 16.563c5.231 2.615 30.513 16.564 30.513 16.564l-.873 20.05s-14.819-3.487-31.384-13.077c-16.56-9.588-31.383-25.28-31.383-25.28l17.436.872-1.743-15.692zm101.125 52.306s20.05-4.36 33.998-14.82c13.948-10.462 27.896-22.667 27.896-22.667l-16.562 1.744 1.743-16.563s-13.077 13.076-21.795 19.178c-8.717 6.104-27.024 11.334-27.024 11.334l1.742 21.794z"/>
  <path fill="#003271" fill-rule="evenodd" stroke="#fff" stroke-linecap="butt" stroke-miterlimit="4" stroke-width=".6001429500000001" d="M210.966 319.097s22.666 12.205 41.844 11.334c19.179-.873 43.587-11.334 43.587-11.334l.873 27.895s-27.024 9.592-43.588 9.592c-16.563 0-42.716-9.592-42.716-9.592v-27.895z"/>
  <path fill="none" stroke="#fff" stroke-linecap="butt" stroke-miterlimit="4" stroke-width=".6001429500000001" d="m210.989 346.829 16.376 14.702m69.574-14.537-15.197 13.499"/>
  <path fill="#fec500" fill-rule="evenodd" stroke="none" d="m216.687 328.599-.281 15.558 4.526 1.697v-6.224l6.789.282-.282 7.357 4.525.848.281-16.408-3.96-.282-.563 5.092-6.508-.567v-6.223l-4.527-1.132zm64.216 19.518-.282-17.821 12.161-3.679v3.96l-7.92 2.547v3.678l7.639-2.83-.282 4.243-7.356 1.699-.282 4.241 8.201-3.111.284 2.83-12.163 4.241zM242.714 342.175s-.282-5.94 3.678-5.94 4.525 4.527 4.241 6.507c-.281 1.98-.848 5.375-3.676 5.658-2.828.282-3.96-1.981-4.243-6.225zm3.96 9.618c5.082-.133 7.638-3.395 7.638-9.9 0-6.222-4.527-9.052-7.92-9.052-3.397 0-7.638 4.243-7.638 9.334 0 5.094 2.252 9.768 7.92 9.618zm18.952-15.274v4.241s5.942.284 5.942-2.545-5.092-1.415-5.942-1.696zm-3.96 15.276-.564-17.54 6.788-.566c3.1-.257 7.638 1.131 7.356 3.96-.283 2.83-.605 5.343-5.093 5.941l-4.241.567-.286 7.355-3.96.281z"/>
  <path fill="#fec500" fill-rule="evenodd" stroke="#fec500" stroke-linecap="butt" stroke-width="1.3340421" d="M250.195 166.54s-.871 95.892-.871 102.868c0 6.973 0 16.562-7.846 14.82-7.846-1.743-17.436-1.743-31.383-11.335-13.95-9.588-13.95-11.332-13.95-11.332l13.077-4.36s-13.077-2.615-21.794-8.717c-8.717-6.101-15.691-11.334-15.691-11.334s-.872 13.077 3.486 22.668c4.36 9.589 13.077 18.306 13.077 18.306V266.79s12.205 11.334 16.564 13.948c4.358 2.615 21.794 9.59 28.768 13.95 6.973 4.357 20.923 16.562 20.923 16.562s12.203-13.947 20.922-17.436c8.717-3.486 20.05-8.717 25.28-12.203 5.23-3.488 19.178-16.565 19.178-16.565v14.82s9.592-11.333 12.205-19.177c2.616-7.846 3.487-21.796 3.487-21.796s-6.973 5.23-13.077 7.846c-6.101 2.616-23.536 9.592-23.536 9.592l13.948 3.485s-22.666 17.435-30.512 20.922c-7.846 3.488-24.41 5.23-24.41-3.487s.872-110.713.872-110.713h-8.717z"/>
  <path fill="#fec500" fill-rule="evenodd" stroke="#fec500" stroke-width=".9996515999999999" d="M251.066 134.285h6.102v26.153h-6.102z"/>
  <path fill="#fec500" fill-rule="evenodd" stroke="#fff" stroke-linecap="butt" stroke-width="1.3340421" d="M207.48 160.436s24.408-5.227 47.075-5.227c22.664 0 46.202 5.23 46.202 5.23v9.589s-31.384 4.359-49.69 4.359c-18.308 0-44.46-5.23-44.46-5.23l.872-8.718z"/>
  <path fill="#fec500" fill-rule="evenodd" stroke="#fff" stroke-width="1.2495645" d="M263.272 156.078c0 5.778-4.1 10.461-9.154 10.461-5.056 0-9.153-4.683-9.153-10.46s4.097-10.462 9.151-10.462c5.057 0 9.156 4.683 9.156 10.461zm4.359-.436c0 7.944-6.246 14.384-13.95 14.384-7.703 0-13.947-6.44-13.947-14.384s6.244-14.384 13.948-14.384 13.949 6.441 13.949 14.384z"/>
  <path fill="#fec500" fill-rule="evenodd" stroke="none" d="m254.964 59.252 7.581 18.549 20.3 1.86-15.657 12.8 4.469 19.496-17.257-10.64-17.537 10.19 4.99-19.373-15.307-13.2 20.342-1.334zM344.777 81.198l-2.672 19.86 16.672 11.728-19.953 3.294-5.842 19.13-9.658-17.825-20.283.095 13.982-14.31L310.33 84.1l18.3 8.98zM410.903 141.309l-11.013 16.74 9.943 17.795-19.41-5.677-13.554 14.71-.981-20.25-18.321-8.704 18.802-6.837 2.232-20.09 12.602 16.025zM442.348 229.096l-17.42 9.902.764 20.37-14.706-13.882-18.76 6.938 8.333-18.481-12.36-16.082 19.855 2.459 11.122-16.877 3.938 20.001zM433.114 320.382l-20.024.756-8.713 18.428-6.65-19.098-19.846-2.493 15.916-12.558-3.554-19.97 16.485 11.337 17.65-9.85-5.726 19.566zM164.895 80.994l14.963 13.329 19.05-7.253-8.436 18.379 12.585 15.548-20.177-1.971-11.273 16.862-4.034-19.596-19.551-5.126 17.684-10.14zM302.053 382.847l.287 20.036 18.22 9.141-19.25 6.201-2.956 19.783-12.182-16.205-20.047 3.086 11.719-16.215-9.434-17.877 19.426 6.183zM128.626 131.164l1.652 19.97 18.8 7.878-18.782 7.499-1.601 19.938-13.258-15.337-19.79 4.445 10.586-16.977-10.63-17.191 19.802 4.845zM87.75 203.494l10.979 16.764 20.281-2.046-12.929 15.55 8.105 18.288-18.969-7.155-15.272 13.348 1.205-19.97-17.544-10.039 19.714-5.188zM84.54 285.796l17.728 9.34 16.748-11.62-3.77 19.869 15.952 12.066-20.06 2.937-6.888 19.078-8.626-18.052-20.21-.276 14.728-14.094zM149.847 343.646l5.436 19.287 19.959 4.142-17.004 10.948 2.237 19.877-15.944-12.522-18.577 8.143 7.149-18.686-13.718-14.845 20.363.973zM236.6 391.3l-9.23 17.786 11.723 16.676-19.892-3.647-11.967 16.027-3.062-20.04-19.12-6.77 17.998-8.739.15-20.212 14.186 14.641zM358.465 344.543l10.126 17.292 20.358-1.027-13.691 14.883 7.179 18.67-18.587-8.095-15.922 12.567 2.203-19.885-17.019-10.904 19.95-4.196z"/>
</svg>
